# xmcd
# 
# Track frame offsets:
#     150
#     19677
#     35222
#     38797
#     43175
#     49712
#     60615
#     74992
#     86137
#     105017
#     112167
#     121450
#     132680
#     151965
#     166235
#     187502
#     202022
#     217105
#     219390
#     227062
#     234287
#     254915
#     273435
#     293422
#     314185
#     326837
# 
# Disc length: 4716
# 
# Revision: 3
# Processed by: cddbd v1.5.2PL0 Copyright (c) Steve Scherf et al.
# Submitted via: fre:ac v1.1rc1
# 
DISCID=94126a1a
DTITLE=Various Artist - Historische Orgel in Nederland, het  cd 07 - Oosterland, Dalem, Heukelum, Zaandam, Nijmegen
DYEAR=2000
DGENRE=Orgel
TTITLE0=Various Artist - Telemann - Fantasia in d · Hervormde of Michaëlskerk, Oosterland · Peter Westerbrink
TTITLE1=Various Artist - Telemann - O Lamm Gottes, unschuldig · Oosterland · Peter Westerbrink
TTITLE2=Various Artist - Geimproviseerde variaties over Psalm 101 (1) · Oosterland · Peter Westerbrink
TTITLE3=Various Artist - Geimproviseerde variaties over Psalm 101 (2) · Oosterland · Peter Westerbrink
TTITLE4=Various Artist - Geimproviseerde variaties over Psalm 101 (3) · Oosterland · Peter Westerbrink
TTITLE5=Various Artist - Mozart - Divertimento in C-F naar KV 439b · Allegro brillante · Hervormde Kerk, Dalem · Geert Bierling
TTITLE6=Various Artist - Mozart - Divertimento in C-F naar KV 439b · Menuetto-Trio · Hervormde Kerk, Dalem · Geert Bierling
TTITLE7=Various Artist - Mozart - Divertimento in C-F naar KV 439b · Adagio · Hervormde Kerk, Dalem · Geert Bierling
TTITLE8=Various Artist - Mozart - Divertimento in C-F naar KV 439b · Menuetto-Trio (2) · Hervormde Kerk, Dalem · Geert Bierling
TTITLE9=Various Artist - Mozart - Divertimento in C-F naar KV 439b · Polonaise · Hervormde Kerk, Dalem · Geert Bierling
TTITLE10=Various Artist - Bierling - Discantzetting over Psalm 138 · Hervormde Kerk, Heukelum · Okke Dijkhuizen
TTITLE11=Various Artist - Marpurg - Allein Gott in der Höh' sei Ehr · Hervormde Kerk, Heukelum · Okke Dijkhuizen
TTITLE12=Various Artist - Dreyer - Andante con Variazioni in G · Hervormde Kerk, Heukelum · Okke Dijkhuizen
TTITLE13=Various Artist - Gijzen - Soms groet een licht van vreugde, LvdK 448 · Hervormde Kerk, Heukelum · Okke Dijkhuizen
TTITLE14=Various Artist - Bach, C.P.E - Preludium in D, Wq. 70/7 · Doopsgezinde Kerk, Zaandam · Wim Diepenhorst
TTITLE15=Various Artist - Bach, C.P.E - Fuga à 2 in d, Wq. 119/2 · Doopsgezinde Kerk, Zaandam · Wim Diepenhorst
TTITLE16=Various Artist - Bach, C.P.E - Minuetto I and II in F · Doopsgezinde Kerk, Zaandam · Wim Diepenhorst
TTITLE17=Various Artist - Bach, C.P.E - Fantasia in d · Doopsgezinde Kerk, Zaandam · Wim Diepenhorst
TTITLE18=Various Artist - Bach, C.P.E - Andante e sostenuto in g · Doopsgezinde Kerk, Zaandam · Wim Diepenhorst
TTITLE19=Various Artist - Bach, C.P.E - Presto in c · Doopsgezinde Kerk, Zaandam · Wim Diepenhorst
TTITLE20=Various Artist - Bach, C.P.E - Fuga à 4 in c, Wq. 119/7 · Doopsgezinde Kerk, Zaandam · Wim Diepenhorst
TTITLE21=Various Artist - Kittel - Preludio pro Organo pleno in a · Grote of St-Stevenskerk, Nijmegen · Wout van Andel
TTITLE22=Various Artist - Mozart - Allegro in g, KV 312 · Grote of St-Stevenskerk, Nijmegen · Wout van Andel
TTITLE23=Various Artist - Mozart - Fuga in g, KV 401 · Grote of St-Stevenskerk, Nijmegen · Wout van Andel
TTITLE24=Various Artist - Heiller - Valet will ich dir geben · Grote of St-Stevenskerk, Nijmegen · Wout van Andel
TTITLE25=Various Artist - Heiller - Tanz-Toccata · Grote of St-Stevenskerk, Nijmegen · Wout van Andel
EXTD=YEAR: 2000 ID3G:   0
EXTT0=
EXTT1=
EXTT2=
EXTT3=
EXTT4=
EXTT5=
EXTT6=
EXTT7=
EXTT8=
EXTT9=
EXTT10=
EXTT11=
EXTT12=
EXTT13=
EXTT14=
EXTT15=
EXTT16=
EXTT17=
EXTT18=
EXTT19=
EXTT20=
EXTT21=
EXTT22=
EXTT23=
EXTT24=
EXTT25=
PLAYORDER=
